<svg xmlns="http://www.w3.org/2000/svg" viewBox="0 0 132.387 71.867" enable-background="new 0 0 132.387 71.867"><g fill="#fff"><path d="M124.822 35.934c0 11.167-3.125 21.605-8.543 30.489l6.52 3.845c6.084-10.01 9.589-21.764 9.589-34.334 0-11.988-3.202-23.222-8.776-32.921l-6.516 3.843c4.906 8.571 7.726 18.493 7.726 29.078z"/><path d="M7.565 35.934c0-10.562 2.807-20.462 7.694-29.021l-6.519-3.836c-5.551 9.684-8.74 20.895-8.74 32.857 0 12.544 3.491 24.272 9.552 34.27l6.521-3.836c-5.398-8.874-8.508-19.29-8.508-30.434z"/><path d="M109.692 35.934c0 8.361-2.364 16.168-6.453 22.798l6.52 3.846c4.754-7.757 7.499-16.88 7.499-26.644 0-9.182-2.436-17.79-6.678-25.235l-6.516 3.843c3.576 6.318 5.628 13.613 5.628 21.392z"/><path d="M22.695 35.934c0-7.761 2.042-15.042 5.604-21.35l-6.52-3.835c-4.224 7.434-6.649 16.024-6.649 25.185 0 9.743 2.731 18.848 7.469 26.596l6.524-3.838c-4.075-6.624-6.428-14.415-6.428-22.758z"/><path d="M66.193 0c-19.845 0-35.933 16.088-35.933 35.934 0 19.845 16.088 35.934 35.934 35.934s35.934-16.089 35.934-35.934c-.001-19.846-16.089-35.934-35.935-35.934zm0 64.302c-15.667 0-28.369-12.701-28.369-28.368 0-15.668 12.701-28.369 28.369-28.369s28.369 12.701 28.369 28.369c0 15.667-12.701 28.368-28.369 28.368z"/></g><path fill="#fff" d="M52.918 40.505c0-4.153 2.585-7.08 7.077-7.08 2.52 0 6.878.476 10.553 1.157v-5.923c0-.408-.273-.681-.681-.681h-7.013c-.406 0-.679.272-.679.681v2.111l-8.851-1.498v-2.451c0-3.88 3.201-7.08 7.081-7.08h12.457c3.88 0 7.079 3.2 7.079 7.08v25.188h-9.054v-1.565c-2.859 1.157-8.304 2.245-10.893 2.245-4.492 0-7.077-2.926-7.077-7.079v-5.105zm17.63.953c0-.544-.273-.817-.681-.885-2.451-.272-6.33-.477-7.08-.477-.41 0-.68.272-.68.681v4.152c0 .409.27.681.68.681.75 0 6.126-1.089 7.08-1.43.408-.136.681-.408.681-.884v-1.838z"/></svg>